<svg width="100" height="32" viewBox="0 0 100 32" fill="none" xmlns="http://www.w3.org/2000/svg">
<rect x="1.90918" y="2.77783" width="97.0909" height="26.4444" rx="13.2222" stroke="#F5F5F5" stroke-width="2"/>
<path d="M35.9787 21H34.348L38.0121 10.8182H39.7869L43.451 21H41.8203L38.9418 12.6676H38.8622L35.9787 21ZM36.2521 17.0128H41.5419V18.3054H36.2521V17.0128ZM44.802 21V13.3636H46.2885V16.5653H47.0044L49.525 13.3636H51.3645L48.4064 17.0774L51.3993 21H49.5549L47.253 17.9474H46.2885V21H44.802ZM52.554 21V13.3636H54.0405V16.5653H54.7564L57.277 13.3636H59.1165L56.1584 17.0774L59.1513 21H57.3068L55.005 17.9474H54.0405V21H52.554ZM62.5282 21.169C62.0443 21.169 61.6068 21.0795 61.2157 20.9006C60.8246 20.7183 60.5147 20.4548 60.286 20.1101C60.0607 19.7654 59.948 19.3428 59.948 18.8423C59.948 18.4115 60.0308 18.0568 60.1966 17.7784C60.3623 17.5 60.586 17.2796 60.8677 17.1172C61.1494 16.9548 61.4643 16.8321 61.8123 16.7493C62.1603 16.6664 62.515 16.6035 62.8762 16.5604C63.3336 16.5073 63.7048 16.4643 63.9899 16.4311C64.2749 16.3946 64.4821 16.3366 64.6113 16.2571C64.7406 16.1776 64.8052 16.0483 64.8052 15.8693V15.8345C64.8052 15.4003 64.6826 15.0639 64.4373 14.8253C64.1954 14.5866 63.8341 14.4673 63.3535 14.4673C62.853 14.4673 62.4586 14.5784 62.1703 14.8004C61.8852 15.0192 61.688 15.2628 61.5787 15.5312L60.1816 15.2131C60.3474 14.7491 60.5893 14.3745 60.9075 14.0895C61.229 13.8011 61.5985 13.5923 62.0162 13.4631C62.4338 13.3305 62.8729 13.2642 63.3336 13.2642C63.6386 13.2642 63.9617 13.3007 64.3031 13.3736C64.6478 13.4432 64.9693 13.5724 65.2676 13.7614C65.5692 13.9503 65.8161 14.2204 66.0083 14.5717C66.2006 14.9197 66.2967 15.3722 66.2967 15.929V21H64.845V19.956H64.7853C64.6892 20.1482 64.545 20.3371 64.3528 20.5227C64.1606 20.7083 63.9136 20.8625 63.612 20.9851C63.3104 21.1077 62.9492 21.169 62.5282 21.169ZM62.8514 19.9759C63.2624 19.9759 63.6137 19.8946 63.9054 19.7322C64.2003 19.5698 64.4241 19.3577 64.5765 19.0959C64.7323 18.8307 64.8102 18.5473 64.8102 18.2457V17.2614C64.7572 17.3144 64.6544 17.3641 64.502 17.4105C64.3528 17.4536 64.1821 17.4917 63.9899 17.5249C63.7976 17.5547 63.6104 17.5829 63.4281 17.6094C63.2458 17.6326 63.0933 17.6525 62.9707 17.669C62.6824 17.7055 62.4189 17.7668 62.1802 17.853C61.9449 17.9392 61.756 18.0634 61.6135 18.2259C61.4743 18.3849 61.4047 18.5971 61.4047 18.8622C61.4047 19.2301 61.5405 19.5085 61.8123 19.6974C62.0841 19.883 62.4305 19.9759 62.8514 19.9759ZM68.9428 23.8636C68.7208 23.8636 68.5186 23.8454 68.3363 23.8089C68.154 23.7758 68.0181 23.7393 67.9286 23.6996L68.2866 22.4815C68.5584 22.5545 68.8003 22.5859 69.0124 22.576C69.2246 22.5661 69.4118 22.4865 69.5742 22.3374C69.7399 22.1882 69.8858 21.9446 70.0117 21.6065L70.1957 21.0994L67.4016 13.3636H68.9925L70.9265 19.2898H71.006L72.94 13.3636H74.5359L71.3888 22.0192C71.243 22.4169 71.0574 22.7533 70.832 23.0284C70.6067 23.3068 70.3382 23.5156 70.0266 23.6548C69.7151 23.794 69.3538 23.8636 68.9428 23.8636ZM81.1083 16.5405V17.8281H76.9719V16.5405H81.1083ZM77.3896 13.3636V21H75.9329V13.3636H77.3896ZM82.1474 13.3636V21H80.6957V13.3636H82.1474ZM83.1889 14.6463V13.3636H89.6321V14.6463H87.1413V21H85.6896V14.6463H83.1889Z" fill="white"/>
<path fill-rule="evenodd" clip-rule="evenodd" d="M22.5451 13.3334C22.5451 14.1504 21.8551 14.8889 20.9087 14.8889C19.9624 14.8889 19.2724 14.1504 19.2724 13.3334C19.2724 12.5164 19.9624 11.7778 20.9087 11.7778C21.8551 11.7778 22.5451 12.5164 22.5451 13.3334ZM24.5451 13.3334C24.5451 15.2971 22.917 16.8889 20.9087 16.8889C18.9004 16.8889 17.2724 15.2971 17.2724 13.3334C17.2724 11.3697 18.9004 9.77783 20.9087 9.77783C22.917 9.77783 24.5451 11.3697 24.5451 13.3334ZM19.3633 17.6667C17.1541 17.6667 15.3633 19.4576 15.3633 21.6667V22.2223H17.3633V21.6667C17.3633 20.5622 18.2587 19.6667 19.3633 19.6667H22.4542C23.5588 19.6667 24.4542 20.5622 24.4542 21.6667V22.2223H26.4542V21.6667C26.4542 19.4576 24.6633 17.6667 22.4542 17.6667H19.3633Z" fill="white"/>
</svg>
